<svg xmlns="http://www.w3.org/2000/svg" viewBox="0 0 32 32" fill="none">
	<defs>
		<linearGradient id="g" x1="0" y1="0" x2="32" y2="32" gradientUnits="userSpaceOnUse">
			<stop offset="0" stop-color="#1e63eb"/>
			<stop offset="1" stop-color="#7c3aed"/>
		</linearGradient>
	</defs>
	<rect width="32" height="32" rx="8" fill="url(#g)"/>
	<g transform="rotate(-8 16 16)">
		<rect x="8" y="7" width="16" height="18" rx="2" fill="#ffffff"/>
		<g fill="#c7d2fe">
			<circle cx="9.5" cy="10" r="0.7"/>
			<circle cx="9.5" cy="13" r="0.7"/>
			<circle cx="9.5" cy="16" r="0.7"/>
			<circle cx="9.5" cy="19" r="0.7"/>
			<circle cx="9.5" cy="22" r="0.7"/>
		</g>
		<g stroke="#c7d2fe" stroke-width="1.1" stroke-linecap="round">
			<line x1="12" y1="10" x2="22" y2="10"/>
			<line x1="12" y1="13" x2="22" y2="13"/>
			<line x1="12" y1="16" x2="22" y2="16"/>
			<line x1="12" y1="19" x2="20" y2="19"/>
			<line x1="12" y1="22" x2="18" y2="22"/>
		</g>
	</g>
	<path d="M18.5 7.5 L13 17.5 L16.3 17.5 L13.5 24.5 L21 14 L17.5 14 L20 7.5 Z" fill="#22d3ee" stroke="#0891b2" stroke-width="0.5" stroke-linejoin="round"/>
</svg>
